<?xml version="1.0" encoding="UTF-8"?>
<svg id="Capa_1" data-name="Capa 1" xmlns="http://www.w3.org/2000/svg" viewBox="0 0 500 106.91">
  <defs>
    <style>
      .cls-1 {
        fill: #fff;
      }

      .cls-2 {
        fill: #a22944;
      }

      .cls-3 {
        fill: #585857;
      }
    </style>
  </defs>
  <g>
    <rect class="cls-2" x="40.74" y="0" width="89.61" height="89.61" rx="44.8" ry="44.8"/>
    <g>
      <path class="cls-1" d="M90.93,77.32c-.79-.44-1.67-.53-2.46-.26l-7.22,1.94c-.88.26-1.58.79-2.02,1.58s-.53,1.67-.26,2.46.79,1.58,1.58,2.02c.53.26,1.06.44,1.58.44.26,0,.62-.09.88-.09l7.22-2.02h0c.88-.26,1.58-.79,2.02-1.58s.53-1.67.26-2.46-.79-1.58-1.58-2.02Z"/>
      <path class="cls-1" d="M100.34,66.75c-.79-.44-1.67-.53-2.46-.26l-15.67,4.4c-.88.26-1.58.79-2.02,1.58s-.53,1.67-.26,2.46c.44,1.5,1.76,2.46,3.17,2.46.26,0,.62,0,.88-.09l15.67-4.4c.88-.26,1.58-.79,2.02-1.58.44-.79.53-1.67.26-2.46-.26-.97-.79-1.67-1.58-2.11Z"/>
      <path class="cls-1" d="M110.29,58.39c-.26-.79-.79-1.5-1.5-1.94-.79-.44-1.67-.53-2.46-.26l-21.12,5.9c-.88.26-1.5.79-1.94,1.5-.44.79-.53,1.67-.26,2.46v.09c.44,1.41,1.67,2.38,3.17,2.38.26,0,.62,0,.88-.09l21.12-5.9c1.58-.53,2.64-2.38,2.11-4.14h0Z"/>
      <path class="cls-1" d="M117.94,45.9c-.79-.44-1.67-.53-2.46-.26l-29.4,8.18c-.88.26-1.58.79-2.02,1.58s-.53,1.67-.26,2.46c.26.88.79,1.58,1.58,2.02.53.26,1.06.44,1.58.44.26,0,.62-.09.88-.09l29.4-8.18h0c.88-.26,1.58-.79,2.02-1.58.44-.79.53-1.67.26-2.46-.26-.97-.79-1.67-1.58-2.11Z"/>
      <path class="cls-1" d="M123.75,38.77c-.26-.88-.79-1.58-1.58-2.02s-1.67-.53-2.46-.26l-34.41,9.59c-.88.26-1.58.79-2.02,1.58-.44.79-.53,1.67-.26,2.46.44,1.5,1.76,2.46,3.17,2.46.26,0,.62,0,.88-.09l34.32-9.51c.88-.26,1.58-.79,2.02-1.58.44-.88.53-1.76.35-2.64Z"/>
      <path class="cls-1" d="M80.28,46.34l31.86-8.89h0c.88-.26,1.58-.79,2.02-1.58.44-.79.53-1.67.26-2.46-.53-1.76-2.29-2.82-4.05-2.29l-31.86,8.89c-.88.26-1.58.79-2.02,1.58-.44.79-.53,1.67-.26,2.46.26.88.79,1.58,1.58,2.02.53.26,1.06.44,1.58.44.26-.09.62-.09.88-.18Z"/>
      <path class="cls-1" d="M77.64,39.12l27.02-7.48c.88-.26,1.58-.79,1.94-1.58s.53-1.67.26-2.55c-.26-.88-.79-1.58-1.58-1.94s-1.67-.53-2.46-.35l-26.93,7.48c-1.76.44-2.82,2.29-2.29,4.05.26.88.79,1.58,1.58,1.94.53.26,1.06.44,1.58.44.26.09.62.09.88,0Z"/>
      <path class="cls-1" d="M76.93,25.48c-.44.79-.53,1.67-.26,2.46s.79,1.58,1.58,2.02c.53.26,1.06.44,1.58.44.26,0,.62,0,.88-.09l14.43-4.05h0c1.76-.44,2.82-2.29,2.29-4.05-.26-.88-.79-1.58-1.58-2.02s-1.67-.53-2.46-.35l-14.43,4.05c-.88.26-1.58.79-2.02,1.58Z"/>
      <path class="cls-1" d="M73.94,20.73c.26.88.79,1.58,1.58,2.02.53.26,1.06.44,1.58.44.26,0,.62,0,.88-.09l1.23-.35c.88-.26,1.58-.79,2.02-1.58s.53-1.67.26-2.55-.79-1.58-1.58-2.02c-.79-.44-1.67-.53-2.46-.35l-1.23.35c-1.76.62-2.73,2.46-2.29,4.14Z"/>
      <path class="cls-1" d="M76.23,12.36l-.09-.26c-.44-1.67-2.2-2.64-3.87-2.2l-8.1,2.29c-.79.26-1.5.79-1.94,1.5s-.53,1.58-.26,2.38l.09.26c.26.79.79,1.5,1.5,1.94.44.26.97.44,1.58.44.26,0,.53,0,.88-.09l8.1-2.29c1.58-.62,2.55-2.29,2.11-3.96Z"/>
      <path class="cls-1" d="M64.7,10.78c.88-.26,1.58-.79,2.02-1.58s.53-1.67.35-2.55c-.44-1.76-2.29-2.82-4.05-2.29l-6.16,1.67c-1.76.53-2.82,2.29-2.29,4.05.44,1.5,1.76,2.38,3.17,2.38.26,0,.62,0,.88-.09l6.07-1.58h0Z"/>
      <path class="cls-1" d="M79.92,9.55c.53.26,1.06.44,1.58.44.26,0,.62-.09.88-.09l3.17-.88h0c.88-.26,1.58-.79,2.02-1.58.44-.79.53-1.67.26-2.46-.26-.88-.79-1.58-1.58-2.02s-1.58-.53-2.38-.26l-3.17.88c-.88.26-1.58.79-2.02,1.58s-.53,1.67-.26,2.46c.18.88.7,1.58,1.5,1.94Z"/>
      <path class="cls-1" d="M90.05,88.32c-.44-1.67-2.2-2.73-3.96-2.2-1.67.44-2.73,2.2-2.2,3.96l.09.18c.26.79.79,1.5,1.5,1.94.44.26,1.06.44,1.58.44.26,0,.62,0,.88-.09.79-.26,1.5-.79,1.94-1.5s.53-1.58.26-2.46l-.09-.26ZM85.91,89.55v-.44.44h0c.09.18.18.35.26.44-.09-.18-.18-.26-.26-.44ZM88.11,89.46v-.35l-.09-.18c0-.09-.09-.26-.18-.35.09.09.18.26.26.44v.44Z"/>
    </g>
    <path class="cls-2" d="M17.71,88.86V29.04L0,42.32v-20.34L20.7,6.3h15.32v82.56h-18.31Z"/>
    <g>
      <path class="cls-3" d="M11.56,106.91l4.03-10.34h1.44l4.03,10.34h-1.41l-1.11-2.91h-4.5l-1.11,2.91h-1.38ZM14.52,102.76h3.54l-1.77-4.62-1.77,4.62Z"/>
      <path class="cls-3" d="M46.07,106.91v-10.34h1.48l5.41,8.27v-8.27h1.27v10.34h-1.47l-5.42-8.27v8.27h-1.27ZM47.74,95.56v-.24c0-1.08.51-1.78,1.42-1.78,1.03,0,1.23.85,1.81.85.36,0,.48-.36.48-.85h1.12v.24c0,1.06-.51,1.78-1.42,1.78-1.06,0-1.24-.85-1.83-.85-.34,0-.46.36-.46.85h-1.12Z"/>
      <path class="cls-3" d="M79.57,101.74c0-3.03,2.31-5.32,5.29-5.32s5.29,2.29,5.29,5.32-2.31,5.32-5.29,5.32-5.29-2.29-5.29-5.32ZM88.85,101.74c0-2.34-1.72-4.06-3.99-4.06s-3.99,1.72-3.99,4.06,1.72,4.06,3.99,4.06,3.99-1.72,3.99-4.06Z"/>
      <path class="cls-3" d="M114.96,103.91h1.39c.18,1.26.99,1.89,2.4,1.89,1.26,0,2.26-.5,2.26-1.65,0-1.02-.78-1.42-2.11-1.72l-.73-.17c-2.1-.46-3-1.5-3-2.89,0-1.75,1.42-2.95,3.37-2.95,2.19,0,3.51,1.36,3.64,3.07h-1.39c-.13-.99-.87-1.81-2.25-1.81-1.18,0-2.04.58-2.04,1.65s.78,1.42,2.11,1.72l.73.16c2.14.48,3,1.5,3,2.89,0,1.87-1.53,2.95-3.58,2.95-2.2,0-3.66-1.26-3.81-3.15Z"/>
    </g>
  </g>
  <g>
    <g>
      <path class="cls-2" d="M494.47,19.07c3.05,0,5.53,2.48,5.53,5.53s-2.48,5.53-5.53,5.53-5.53-2.48-5.53-5.53c.1-3.05,2.48-5.53,5.53-5.53ZM499.14,24.59c0-2.57-2.1-4.67-4.67-4.67s-4.67,2.1-4.67,4.67,2.1,4.67,4.67,4.67,4.67-2.1,4.67-4.67Z"/>
      <path class="cls-2" d="M492.57,20.88c.67-.1,1.43-.19,2.1-.1.38,0,.76.1,1.05.19.76.29,1.14.86,1.24,1.62,0,.76-.29,1.33-.95,1.72-.1.1-.29.1-.38.19h0c.67.29.86.86,1.05,1.43.19.67.29,1.24.48,1.91h-.86l-.1-.1c-.1-.48-.29-1.05-.38-1.52,0-.1-.1-.29-.1-.38-.19-.67-.57-.95-1.24-1.05h-.95v3.05h-.95c0-2.29,0-4.67,0-6.96ZM493.52,24.12c.48,0,1.05,0,1.43-.1.67-.1,1.05-.67,1.05-1.24,0-.67-.38-1.14-1.05-1.24-.48-.1-.95-.1-1.43,0-.1,0-.1.1-.1.19v1.05c.1.38.1.86.1,1.33Z"/>
    </g>
    <g>
      <g>
        <path class="cls-3" d="M196.72,18.38v16.86c-2.1-2.38-4.19-4.1-6.29-5.15-2.1-1.05-4.38-1.62-6.76-1.62-4.38,0-8,1.52-10.77,4.57-2.76,3.05-4.1,6.96-4.1,11.81,0,4.57,1.43,8.29,4.19,11.24s6.38,4.48,10.67,4.48c2.38,0,4.67-.57,6.76-1.62,2.1-1.14,4.19-2.86,6.29-5.24v16.86c-2.48,1.14-4.86,2.1-7.34,2.67-2.38.57-4.86.86-7.34.86-3.05,0-5.91-.38-8.58-1.14-2.57-.76-5.05-1.81-7.24-3.33-4.19-2.86-7.43-6.38-9.62-10.67-2.19-4.29-3.33-9.15-3.33-14.48,0-4.29.67-8.29,2.1-11.81,1.43-3.53,3.53-6.76,6.38-9.62,2.67-2.76,5.72-4.76,9.05-6.19,3.33-1.33,7.15-2.1,11.24-2.1,2.48,0,4.95.29,7.34.86,2.48.67,4.95,1.52,7.34,2.76Z"/>
        <path class="cls-3" d="M244.93,55.92h-29.63c0,3.05.76,5.34,2.29,6.96,1.52,1.62,3.72,2.48,6.48,2.48,2.1,0,3.81-.38,5.24-1.14,1.43-.76,2.48-1.91,3.24-3.53l10.39,4.19c-1.24,2.95-3.43,5.34-6.57,6.86-3.14,1.52-6.96,2.48-11.53,2.48-6.76,0-12.29-1.91-16.39-5.62-4.1-3.72-6.19-8.77-6.19-14.96s2-11.15,6.19-15.15c4.1-4,9.34-6,15.63-6s11.53,2,15.34,6.1c3.81,4.1,5.62,9.62,5.62,16.67l-.1.67h0ZM231.31,48.2c-.29-2.19-1.05-4-2.48-5.34-1.43-1.33-3.14-2-5.24-2-2.29,0-4,.57-5.34,1.81-1.33,1.24-2.19,3.05-2.67,5.53h15.72Z"/>
        <path class="cls-3" d="M252.84,92.51v-58.79h12.67v6.57c1.72-2.67,3.72-4.57,5.91-5.91,2.19-1.33,4.67-1.91,7.34-1.91,5.53,0,9.81,1.91,13.05,5.62,3.24,3.72,4.86,8.86,4.86,15.24s-1.62,11.24-4.86,15.15c-3.24,3.91-7.43,5.81-12.67,5.81-3.33,0-6-.57-8-1.81-2.1-1.24-3.91-3.24-5.53-6,.1.76.19,1.72.29,2.86.1,1.14.1,2.48.1,4.1v19.15l-13.15-.1h0ZM265.04,53.35c0,3.05.76,5.43,2.38,7.15,1.62,1.72,3.72,2.67,6.57,2.67s4.95-.86,6.57-2.67c1.62-1.81,2.38-4.1,2.38-7.15s-.76-5.43-2.38-7.15c-1.62-1.72-3.81-2.67-6.57-2.67s-4.95.86-6.57,2.67c-1.62,1.72-2.38,4.1-2.38,7.15Z"/>
        <path class="cls-3" d="M305.06,72.69v-38.97h12.96v9.15c1.33-3.33,3.14-5.91,5.53-7.53,2.29-1.72,5.15-2.48,8.38-2.48.57,0,1.05,0,1.62.1.57.1,1.14.1,1.72.19l-1.33,12.48c-.86-.29-1.62-.48-2.38-.67-.76-.1-1.52-.19-2.29-.19-3.33,0-5.91,1.05-7.72,3.05-1.81,2.1-2.76,4.95-2.76,8.67v16.1l-13.72.1h0Z"/>
        <path class="cls-3" d="M381.66,53.35c0,2.76-.57,5.43-1.62,8-1.05,2.57-2.67,4.76-4.76,6.76-2.1,2-4.48,3.53-7.05,4.57-2.57,1.05-5.34,1.52-8.29,1.52s-5.81-.48-8.38-1.52c-2.57-1.05-4.95-2.57-7.05-4.57-2.1-2-3.62-4.19-4.67-6.76-1.05-2.57-1.62-5.24-1.62-8.1s.57-5.53,1.62-8.1c1.05-2.57,2.67-4.76,4.76-6.76,2-2,4.38-3.53,6.96-4.48s5.43-1.52,8.48-1.52,5.81.48,8.38,1.52c2.57.95,4.95,2.48,6.96,4.48,2.1,2,3.72,4.29,4.76,6.86.95,2.57,1.52,5.24,1.52,8.1ZM368.04,53.35c0-2.86-.76-5.24-2.19-6.86-1.43-1.72-3.43-2.48-5.91-2.48s-4.48.86-6,2.48c-1.43,1.72-2.19,4-2.19,6.86s.76,5.24,2.19,6.86c1.43,1.62,3.43,2.48,6,2.48s4.48-.86,6-2.48c1.33-1.72,2.1-4,2.1-6.86Z"/>
        <path class="cls-3" d="M491.52,55.92h-29.63c0,3.05.76,5.34,2.29,6.96,1.52,1.62,3.72,2.48,6.48,2.48,2.1,0,3.81-.38,5.24-1.14,1.43-.76,2.48-1.91,3.24-3.53l10.39,4.19c-1.24,2.95-3.43,5.34-6.57,6.86-3.14,1.62-6.96,2.48-11.53,2.48-6.76,0-12.29-1.91-16.39-5.62-4.1-3.72-6.19-8.77-6.19-14.96s2-11.15,6.19-15.15c4.1-4,9.34-6,15.63-6s11.53,2,15.24,6.1c3.72,4.1,5.62,9.62,5.62,16.67v.67h0ZM477.99,48.2c-.29-2.19-1.05-4-2.48-5.34-1.43-1.33-3.14-2-5.24-2-2.29,0-4,.57-5.34,1.81-1.33,1.24-2.19,3.05-2.67,5.53h15.72Z"/>
      </g>
      <g>
        <path class="cls-2" d="M433.32,26.45c.22,0,.33,0,.55.11.77.44,1.44,1.11,1.99,1.77.89,1,2.1,1.66,3.43,1.99.44.11,1,.11,1.55.11h1.44c1.11,0-.22-.22-.33-.22-.33-.22-.66-.44-1-.55-1.55-.89-2.32-2.32-2.32-3.98,0-.66.22-1.22.55-1.77.44-1.11.77-2.21.66-3.32,0-1.66-.77-2.99-2.32-3.76-.55-.33-1.22-.55-1.77-.77-.22-.11-.55-.22-.89-.33-1.33-.77-2.88-1.11-4.43-.89-3.43.55-5.75,3.65-5.2,6.86.77,3.54,4.54,5.75,8.08,4.76Z"/>
        <g>
          <path class="cls-2" d="M410.86,59.98c1.66,0,2.99-1.33,2.99-2.88s-1.33-2.88-2.99-2.88-2.99,1.33-2.99,2.88c.11,1.66,1.44,2.88,2.99,2.88Z"/>
          <path class="cls-2" d="M425.91,67.39c-.55-1.11-1.22-2.21-1.77-3.32-.22-.44-.55-.66-.89-.89-.33-.22-.66-.33-1-.44-1.11-.33-2.21-.33-3.32.11-.55.22-1,.44-1.33.89-.22.22-.33.55-.66.77-.55.66-1,.66-1.33,1.11-.55-1.11-1.11-2.55-1.66-3.54-.22-.44-.55-.66-.89-.89-.33-.22-.66-.33-1-.44-1.11-.33-2.21-.33-3.32.11-.55.22-1,.44-1.33.89-.22.22-.33.55-.55.89-.55,1.11-1.22,3.1-1.77,4.21-.11.11-.11.33-.11.55v.22c.11.22.55.33.89.22.22-.22.44-.44.55-.66.55-.89,1-2.66,1.55-3.54.11-.22.33-.22.44-.11.11.11.11,2.32.11,2.43,0,.77,0,1.55-.11,2.32,0,.77,0,1.44-.11,2.21,0,1.11-.11,2.32-.11,3.43,0,.44,0,.89-.11,1.44.22.22.77.33,1,.33s.55,0,.77-.11c.11,0,.11-.11.22-.11.22-.22.22-.44.22-.77v-5.53c0-.22.11-.33.22-.55.22.11.22.33.22.55v5.64c0,.33,0,.55.22.77.33.11.77.22,1.11.22.22,0,.44-.11.55-.22s.11-.33.11-.44c0-1.22-.11-2.43-.11-3.65,0-.89,0-1.77-.11-2.55,0-1-.11-1.99-.11-2.99,0-.11,0-2.32.11-2.43s.33-.11.44,0c.55.89,1,2.32,1.55,3.21.11.11.22.22.33.44v.11c.11.11.22.22.33.22h.44s.11,0,.11-.11h.11l.11-.11c.22-.11.33-.22.55-.33.89-.66,1-.55,1.77-1.33.11-.11.11,0,.22.11.11.11.11.22.11.33v.44h0l-1.55,5.75s-.44.44.66.44h.66v1.44c0,.44,0,.89-.11,1.44.22.22.77.33,1,.33s.55,0,.77-.11c.11,0,.11-.11.22-.11.22-.22.22-.44.22-.77v-2.1h.55v2.1c0,.33,0,.55.22.77.33.11.77.22,1.11.22.22,0,.44-.11.55-.22s.11-.33.11-.44c0-.89-.11-1.77-.11-2.66h.55c1,0,.66-.44.66-.44l-1.44-6.09v-.44c0-.11,0-.22.11-.22.11-.11.33-.11.44,0,.44.89,1,1.77,1.55,2.66.11.22.22.33.33.44l.11.11c.22.22.44.22.77,0,.22-.11.22-.33.22-.55-.11-.22-.22-.44-.33-.66Z"/>
          <path class="cls-2" d="M420.27,62.19c1.66,0,2.99-1.33,2.99-2.88s-1.33-2.88-2.99-2.88-2.99,1.33-2.99,2.88c0,1.55,1.33,2.88,2.99,2.88Z"/>
        </g>
        <path class="cls-2" d="M442.95,73.81l-5.75-43.05c-.11-.55-.44-.89-1-.89h-11.18c-.33,0-.66.22-.89.44l-7.3,11.07v-10.51h2.43c.33,0,.66-.22.66-.66v-.66c0-.33-.22-.66-.66-.66h-2.43v-2.55c0-.33-.22-.66-.66-.66h-.77c-.33,0-.66.22-.66.66v2.55h-2.43c-.33,0-.66.22-.66.66v.77c0,.33.22.66.66.66h2.43v10.51l-7.3-11.07c-.22-.22-.55-.44-.89-.44h-11.18c-.55,0-.89.33-1,.89l-5.75,42.94c-.11.55.33,1.11,1,1.11h8.96c.44,0,.89-.33,1-.89l5.31-32.98c.11-.89,1.33-1.11,1.77-.33l8.3,12.62c.44.55,1.33.55,1.66,0l8.3-12.62c.44-.77,1.66-.55,1.77.33l5.31,32.98c.11.44.44.89,1,.89h8.96c.66.11,1.11-.44,1-1.11Z"/>
        <path class="cls-2" d="M401.68,27c3.32,0,5.75-2.55,5.75-5.53s-2.55-5.53-5.64-5.53c-3.32,0-5.86,2.43-5.86,5.31-.11,2.99,2.32,5.75,5.75,5.75Z"/>
      </g>
    </g>
    <g>
      <path class="cls-2" d="M273.5,93.09v-14.46h1.82v12.7h6.28v1.76h-8.11Z"/>
      <path class="cls-2" d="M288.91,87.91c0-3.02,2.24-5.38,5.28-5.38,1.59,0,2.95.67,3.79,1.8v-1.59h1.72v10.35h-1.72v-1.57c-.82,1.11-2.2,1.78-3.79,1.78-3.04,0-5.28-2.37-5.28-5.38ZM297.94,87.91c0-2.16-1.53-3.71-3.62-3.71s-3.62,1.55-3.62,3.71,1.53,3.71,3.62,3.71,3.62-1.55,3.62-3.71Z"/>
      <path class="cls-2" d="M313.11,93.09c-2.12,0-3.18-.94-3.18-2.85v-5.82h-1.82v-1.68h1.34c.31,0,.48-.19.48-.54v-2.09h1.78v2.64h2.98v1.68h-2.98v5.66c0,.88.42,1.34,1.42,1.34h1.55v1.68h-1.57Z"/>
      <path class="cls-2" d="M323.11,79.72c0-.63.46-1.09,1.09-1.09s1.09.46,1.09,1.09-.46,1.09-1.09,1.09-1.09-.46-1.09-1.09ZM323.28,93.09v-10.35h1.78v10.35h-1.78Z"/>
      <path class="cls-2" d="M334.47,93.09v-10.35h1.72v1.17c.69-.86,1.82-1.38,3.21-1.38,2.56,0,4.38,1.78,4.38,4.63v5.93h-1.78v-5.78c0-1.95-1.07-3.1-2.79-3.1s-2.95,1.21-2.95,3.1v5.78h-1.78Z"/>
      <path class="cls-2" d="M352.28,87.91c0-3.02,2.39-5.38,5.4-5.38s5.41,2.37,5.41,5.38-2.39,5.38-5.41,5.38-5.4-2.37-5.4-5.38ZM361.31,87.91c0-2.16-1.53-3.71-3.62-3.71s-3.62,1.55-3.62,3.71,1.53,3.71,3.62,3.71,3.62-1.55,3.62-3.71Z"/>
      <path class="cls-2" d="M371.18,87.91c0-3.02,2.24-5.38,5.28-5.38,1.59,0,2.95.67,3.79,1.8v-1.59h1.72v10.35h-1.72v-1.57c-.82,1.11-2.2,1.78-3.79,1.78-3.04,0-5.28-2.37-5.28-5.38ZM380.21,87.91c0-2.16-1.53-3.71-3.62-3.71s-3.62,1.55-3.62,3.71,1.53,3.71,3.62,3.71,3.62-1.55,3.62-3.71Z"/>
      <path class="cls-2" d="M391.38,93.09v-10.35h1.72v1.09c.69-.82,1.78-1.3,3.1-1.3,1.55,0,2.81.67,3.48,1.91.77-1.17,2.16-1.91,3.77-1.91,2.51,0,4.27,1.76,4.27,4.57v5.99h-1.78v-5.84c0-1.91-1.05-3.04-2.72-3.04s-2.77,1.19-2.77,3.04v5.84h-1.78v-5.84c0-1.91-1.05-3.04-2.72-3.04s-2.79,1.19-2.79,3.04v5.84h-1.78Z"/>
      <path class="cls-2" d="M416.24,87.91c0-3.02,2.24-5.38,5.15-5.38s5.09,2.22,5.09,5.24c0,.23,0,.5-.04.75h-8.4c.23,1.93,1.61,3.14,3.48,3.14,1.51,0,2.64-.8,3.18-1.99h1.84c-.8,2.24-2.74,3.62-5.03,3.62-3,0-5.28-2.37-5.28-5.38ZM418.08,86.99h6.56c-.19-1.63-1.45-2.83-3.27-2.83-1.68,0-2.95,1.11-3.29,2.83ZM420.55,81.42l1.66-3h1.99l-1.93,3h-1.72Z"/>
      <path class="cls-2" d="M435.31,93.09v-10.35h1.72v1.49c.63-.94,1.63-1.49,3.16-1.49h.67v1.76h-.84c-2.09,0-2.93,1.22-2.93,2.89v5.7h-1.78Z"/>
      <path class="cls-2" d="M449.22,79.72c0-.63.46-1.09,1.09-1.09s1.09.46,1.09,1.09-.46,1.09-1.09,1.09-1.09-.46-1.09-1.09ZM449.39,93.09v-10.35h1.78v10.35h-1.78Z"/>
      <path class="cls-2" d="M459.81,87.91c0-3.02,2.33-5.38,5.32-5.38,2.58,0,4.65,1.76,5.15,4.19h-1.86c-.46-1.49-1.68-2.51-3.29-2.51-2.01,0-3.54,1.63-3.54,3.71s1.53,3.71,3.54,3.71c1.63,0,2.83-1.05,3.29-2.51h1.86c-.48,2.43-2.58,4.19-5.15,4.19-3,0-5.32-2.37-5.32-5.38Z"/>
      <path class="cls-2" d="M478.27,87.91c0-3.02,2.24-5.38,5.28-5.38,1.59,0,2.95.67,3.79,1.8v-1.59h1.72v10.35h-1.72v-1.57c-.82,1.11-2.2,1.78-3.79,1.78-3.04,0-5.28-2.37-5.28-5.38ZM487.3,87.91c0-2.16-1.53-3.71-3.62-3.71s-3.62,1.55-3.62,3.71,1.53,3.71,3.62,3.71,3.62-1.55,3.62-3.71Z"/>
    </g>
  </g>
</svg>